<svg width="193" height="62" viewBox="0 0 193 62" fill="none" xmlns="http://www.w3.org/2000/svg">
<g clip-path="url(#clip0_4230_37044)">
<path d="M167.89 32.1096C167.778 32.1312 167.671 32.1528 167.559 32.1743C167.383 32.2067 167.197 32.2283 167.021 32.239C166.744 32.2606 166.461 32.2714 166.184 32.2606C165.481 32.2283 164.799 32.1043 164.159 31.8131C163.509 31.522 162.949 31.1015 162.512 30.5246C162.192 30.1041 161.995 29.6243 161.92 29.1013C161.888 28.9018 161.878 28.7023 161.878 28.5029V26.837C161.878 25.6455 161.878 24.4432 161.899 23.2571V21.6883C161.92 20.5291 161.899 19.3754 161.92 18.2162V17.1272C160.689 16.0813 159.863 14.782 159.479 13.2023C159.149 11.8437 159.202 10.5121 159.634 9.18583C160.492 6.56027 162.725 4.66792 165.332 4.2474C166.893 3.994 168.391 4.22583 169.798 4.95905C171.205 5.69227 172.25 6.78131 172.974 8.19383C175.149 7.35818 177.382 7.06166 179.695 7.31505C182.126 7.58461 184.348 8.42565 186.357 9.83818C188.218 11.1375 189.689 12.798 190.786 14.7982C194.075 20.8257 192.764 28.3573 187.53 32.9076C184.849 35.242 181.353 36.5898 177.558 36.4227C173.795 36.2556 170.587 34.7784 167.895 32.1204V32.1096H167.89ZM191.266 23.1224C191.266 23.1224 191.287 23.0577 191.287 23.0199V22.5077C191.287 22.1519 191.287 21.7961 191.255 21.4295C191.234 21.1599 191.213 20.885 191.181 20.6154C191.149 20.2919 191.09 19.9792 191.026 19.6719C190.882 18.9495 190.664 18.2486 190.355 17.5909C190.035 16.9116 189.63 16.3023 189.124 15.7578C188.564 15.1594 187.914 14.6903 187.2 14.313C186.267 13.8331 185.265 13.5474 184.242 13.391C183.943 13.3479 183.661 13.3156 183.362 13.2778C183.032 13.2455 182.701 13.2239 182.371 13.2131C181.896 13.2024 181.427 13.2024 180.953 13.2131C180.591 13.2347 180.228 13.2563 179.866 13.2886C179.615 13.3102 179.349 13.3425 179.098 13.391C178.635 13.4557 178.187 13.5582 177.745 13.6714C176.908 13.8924 176.098 14.2051 175.346 14.6526C174.621 15.0731 173.982 15.5853 173.422 16.2107C172.644 17.0787 172.111 18.0923 171.807 19.2137C171.674 19.7043 171.578 20.2164 171.53 20.7286C171.498 21.0413 171.477 21.3378 171.477 21.6505V22.4862C171.498 22.8312 171.53 23.1655 171.578 23.5105C171.642 23.9203 171.733 24.3354 171.855 24.7236C172.282 26.0714 173.044 27.1712 174.142 28.0392C174.834 28.5837 175.602 28.9935 176.428 29.3062C176.924 29.4949 177.43 29.6404 177.947 29.7537C178.32 29.8291 178.693 29.8992 179.066 29.9531C179.333 29.9855 179.594 30.0178 179.86 30.0448C180.18 30.0771 180.5 30.0879 180.83 30.0987C181.379 30.1203 181.939 30.1203 182.493 30.0987C182.845 30.0987 183.197 30.0664 183.559 30.034C183.847 30.0124 184.13 29.9801 184.407 29.9423C184.79 29.8992 185.164 29.8291 185.537 29.7537C186.251 29.6081 186.954 29.3978 187.637 29.0959C188.276 28.8155 188.868 28.4597 189.385 27.9853C189.8 27.6079 190.142 27.182 190.408 26.686C190.738 26.0606 190.914 25.3867 190.989 24.6858C190.989 24.675 190.989 24.6535 190.968 24.6319C190.243 24.6211 189.507 24.6319 188.766 24.6211C187.546 24.6103 186.315 24.6211 185.094 24.6104H185.052C185.052 24.6751 185.03 24.7451 185.02 24.8098C184.929 25.2088 184.743 25.5538 184.46 25.8558C184.21 26.1091 183.911 26.3032 183.591 26.4326C183.128 26.6321 182.648 26.7237 182.152 26.7561C181.832 26.7777 181.513 26.7561 181.198 26.7561C180.836 26.7237 180.484 26.6536 180.132 26.5458C179.503 26.3463 178.954 26.0121 178.507 25.5107C178.032 24.9877 177.761 24.3785 177.638 23.6884C177.606 23.489 177.585 23.2895 177.574 23.0792C177.574 23.0684 177.574 23.0576 177.606 23.0361H177.707C178.432 23.0361 179.168 23.0361 179.898 23.0469H181.017C182.163 23.0469 183.303 23.0469 184.449 23.0684C185.206 23.0792 185.958 23.0684 186.715 23.0684C187.605 23.0684 188.505 23.0684 189.395 23.0792H191.309L191.287 23.1547V23.1439L191.266 23.1224ZM162.832 16.6582V16.8361C162.832 18.0383 162.832 19.2514 162.811 20.4537V20.9874C162.811 22.346 162.811 23.6992 162.789 25.0578V28.4382C162.789 28.5622 162.789 28.6808 162.811 28.8156C162.864 29.2145 163.008 29.5811 163.237 29.9046C163.514 30.3035 163.887 30.6055 164.303 30.8373C164.863 31.15 165.47 31.2956 166.094 31.3279C166.403 31.3495 166.712 31.3279 167.016 31.3279C167.41 31.2956 167.783 31.2039 168.162 31.0745C168.679 30.8751 169.142 30.5839 169.515 30.1742C169.931 29.7051 170.155 29.1606 170.166 28.5298V24.8368C170.166 23.8717 170.166 22.8905 170.187 21.9201V16.6258C172.495 14.8898 173.31 11.957 172.431 9.37453C171.551 6.7921 169.1 4.9914 166.286 5.06149C163.626 5.12618 161.238 6.9053 160.412 9.53087C159.597 12.1241 160.476 14.9923 162.789 16.6743H162.811L162.832 16.6636V16.6582Z" fill="#02539E"/>
<path d="M191.269 23.1245H189.356C188.466 23.1245 187.565 23.1137 186.675 23.1137H184.41C183.264 23.0921 182.123 23.1029 180.977 23.0921H179.858C179.133 23.0813 178.398 23.0813 177.668 23.0813H177.566C177.566 23.0813 177.534 23.1137 177.534 23.1245C177.556 23.3239 177.566 23.5342 177.598 23.7337C177.721 24.4238 177.993 25.033 178.467 25.5559C178.92 26.0466 179.469 26.3916 180.093 26.5911C180.444 26.7043 180.796 26.769 181.159 26.8013C181.478 26.8337 181.798 26.8337 182.113 26.8013C182.608 26.769 183.093 26.6773 183.552 26.4778C183.882 26.3323 184.17 26.1436 184.42 25.901C184.708 25.6098 184.895 25.2648 184.98 24.855C184.98 24.7904 185.001 24.7203 185.012 24.6664V24.6556H185.033C186.254 24.6556 187.485 24.6556 188.705 24.6664C189.441 24.6664 190.176 24.6664 190.907 24.6772C190.928 24.6879 190.928 24.7095 190.928 24.7311C190.864 25.4319 190.688 26.1112 190.347 26.7312C190.081 27.2219 189.745 27.6531 189.324 28.0305C188.807 28.4996 188.215 28.8554 187.576 29.1411C186.904 29.4431 186.2 29.6425 185.476 29.7989C185.103 29.8744 184.729 29.9444 184.346 29.9876C184.058 30.0199 183.786 30.0523 183.498 30.0792C183.147 30.1116 182.795 30.1331 182.432 30.1439C181.883 30.1655 181.324 30.1655 180.769 30.1439C180.45 30.1439 180.13 30.1116 179.799 30.09C179.533 30.0684 179.272 30.0361 179.005 29.9984C178.632 29.9445 178.259 29.8852 177.886 29.7989C177.369 29.6857 176.863 29.5455 176.367 29.3514C175.541 29.0387 174.773 28.629 174.081 28.0845C172.983 27.2165 172.221 26.1166 171.794 24.7688C171.672 24.3698 171.576 23.9655 171.517 23.5558C171.464 23.2215 171.426 22.8764 171.416 22.5314C171.416 22.251 171.394 21.9761 171.416 21.6957C171.416 21.3831 171.448 21.0866 171.469 20.7739C171.522 20.2617 171.613 19.7603 171.746 19.2589C172.055 18.1375 172.583 17.1239 173.361 16.2559C173.921 15.6306 174.571 15.1238 175.285 14.6978C176.042 14.2665 176.847 13.9431 177.684 13.7166C178.137 13.5926 178.584 13.5064 179.037 13.4363C179.288 13.4039 179.554 13.3608 179.805 13.3338C180.167 13.3015 180.53 13.2799 180.892 13.2584C181.366 13.2368 181.835 13.2368 182.31 13.2584C182.64 13.2584 182.971 13.2907 183.301 13.3231C183.6 13.3554 183.893 13.3878 184.181 13.4363C185.214 13.6034 186.206 13.8838 187.139 14.3582C187.863 14.7248 188.514 15.2046 189.063 15.8031C189.569 16.3476 189.974 16.9622 190.294 17.6361C190.603 18.3046 190.821 19.0055 190.965 19.7172C191.029 20.0298 191.088 20.3533 191.12 20.6606C191.152 20.9302 191.173 21.1944 191.194 21.4747C191.216 21.8305 191.226 22.1864 191.226 22.553V23.0652C191.226 23.0652 191.226 23.1298 191.205 23.1676L191.226 23.0921L191.248 23.1029L191.269 23.1245ZM185.289 19.8196V19.7172C185.268 19.4476 185.236 19.1834 185.166 18.93C185.033 18.4286 184.793 17.9973 184.442 17.6307C184.101 17.2857 183.695 17.0323 183.242 16.8652C182.725 16.6657 182.187 16.5956 181.638 16.574C181.276 16.5632 180.913 16.5848 180.551 16.6387C180.22 16.6818 179.901 16.7735 179.581 16.8921C179.187 17.0485 178.835 17.2695 178.526 17.5714C178.142 17.9488 177.865 18.4071 177.71 18.93C177.636 19.2104 177.577 19.4853 177.556 19.7764C177.588 19.8088 177.63 19.798 177.668 19.798H179.219C180.162 19.798 181.111 19.798 182.054 19.8088H185.289V19.8196Z" fill="white"/>
<path d="M162.827 16.6614C160.53 14.9793 159.64 12.1112 160.45 9.51796C161.276 6.89239 163.658 5.11326 166.323 5.04856C169.137 4.98387 171.589 6.78456 172.468 9.36161C173.348 11.944 172.532 14.8661 170.225 16.6129C170.203 16.7154 170.225 16.8124 170.225 16.9256V21.9072C170.203 22.8722 170.225 23.8534 170.203 24.8239V28.5169C170.203 29.1531 169.974 29.6976 169.553 30.1613C169.18 30.571 168.716 30.8621 168.199 31.0616C167.837 31.2072 167.453 31.2827 167.053 31.315C166.744 31.3474 166.435 31.3474 166.131 31.315C165.502 31.2827 164.89 31.1371 164.341 30.8244C163.925 30.5926 163.562 30.2907 163.275 29.8917C163.045 29.5574 162.902 29.2016 162.848 28.8027C162.827 28.6786 162.827 28.56 162.827 28.4253V25.0449C162.848 23.6863 162.827 22.3331 162.848 20.9745V20.4407C162.87 19.2385 162.848 18.0254 162.87 16.8232V16.6453H162.848L162.827 16.6561V16.6614ZM166.478 16.6399C169.313 16.6399 171.637 14.3162 171.637 11.448C171.637 10.0247 171.131 8.79013 170.139 7.77656C169.137 6.75221 167.906 6.25083 166.488 6.22926C165.092 6.25083 163.872 6.74143 162.87 7.74422C161.868 8.75778 161.361 9.98161 161.34 11.4157C161.34 14.3432 163.68 16.6453 166.472 16.6453L166.478 16.6399Z" fill="white"/>
<path d="M185.288 19.8234H182.053C181.11 19.8019 180.161 19.8234 179.218 19.8126H177.667C177.667 19.8126 177.592 19.8234 177.555 19.7911C177.576 19.4999 177.629 19.225 177.709 18.9446C177.864 18.4217 178.125 17.9634 178.525 17.586C178.834 17.2841 179.186 17.063 179.58 16.9067C179.889 16.7827 180.22 16.6965 180.55 16.6533C180.912 16.5994 181.275 16.5779 181.637 16.5886C182.186 16.6102 182.725 16.6803 183.242 16.8798C183.695 17.0577 184.1 17.3003 184.441 17.6453C184.803 18.0119 185.032 18.4486 185.166 18.9446C185.23 19.198 185.267 19.4676 185.288 19.7317V19.8342V19.8234Z" fill="#02539E"/>
<path d="M166.484 16.6347C163.691 16.6347 161.352 14.3327 161.352 11.4052C161.384 9.98188 161.879 8.74727 162.881 7.73371C163.883 6.73092 165.093 6.24571 166.5 6.21875C167.918 6.24032 169.149 6.7417 170.151 7.76605C171.142 8.77962 171.649 10.0142 171.649 11.4375C171.649 14.3057 169.33 16.6293 166.489 16.6293L166.484 16.6347Z" fill="#FBCF09"/>
<path d="M24.1646 49.7315C24.5909 49.9849 25.2198 50.2167 25.8754 50.2167C26.8561 50.2167 27.4104 49.71 27.4104 48.9444C27.4104 48.2597 27.0107 47.8499 26.03 47.4725C24.8255 47.0412 24.0686 46.4051 24.0686 45.3646C24.0686 44.1947 25.0226 43.332 26.4564 43.332C27.2078 43.332 27.7621 43.51 28.0873 43.6879L27.8368 44.475C27.5863 44.3456 27.1066 44.1192 26.4297 44.1192C25.4224 44.1192 25.0493 44.7284 25.0493 45.2352C25.0493 45.9199 25.5023 46.2757 26.5043 46.6854C27.7621 47.1707 28.3911 47.7799 28.3911 48.8689C28.3911 49.958 27.5383 51.0038 25.8008 51.0038C25.0973 51.0038 24.3191 50.799 23.9141 50.5186L24.1646 49.7046V49.7315Z" fill="#606060"/>
<path d="M31.2795 44.0389C31.2795 44.3678 31.0556 44.6481 30.6772 44.6481C30.3521 44.6481 30.1016 44.3947 30.1016 44.0389C30.1016 43.6831 30.3521 43.4297 30.7038 43.4297C31.0556 43.4297 31.3061 43.6831 31.3061 44.0389H31.2795ZM30.2242 50.902V45.5377H31.1782V50.902H30.2242Z" fill="#606060"/>
<path d="M33.3136 46.9859C33.3136 46.4252 33.3136 45.967 33.2656 45.5357H34.1184L34.1664 46.3983C34.4702 45.8915 34.9445 45.4062 35.8239 45.4062C36.5541 45.4062 37.1031 45.8376 37.3322 46.4738C37.5081 46.1664 37.7106 45.94 37.9345 45.789C38.2596 45.5357 38.6114 45.4062 39.1177 45.4062C39.8212 45.4062 40.8499 45.8645 40.8499 47.7191V50.873H39.9225V47.8485C39.9225 46.808 39.5441 46.1988 38.7659 46.1988C38.2116 46.1988 37.7853 46.6031 37.636 47.0884C37.5881 47.2178 37.5614 47.3957 37.5614 47.5736V50.8784H36.634V47.676C36.634 46.8134 36.2556 46.2042 35.5308 46.2042C34.9285 46.2042 34.5021 46.6894 34.3476 47.1692C34.2996 47.3202 34.273 47.4765 34.273 47.6544V50.8838H33.3456V46.9697H33.2976L33.3243 46.9967L33.3136 46.9859Z" fill="#606060"/>
<path d="M42.9855 47.2941C42.9855 46.6094 42.9855 46.0487 42.9375 45.542H43.7903L43.8382 46.4585C44.238 45.7954 44.8669 45.418 45.725 45.418C47.0041 45.418 47.9635 46.5124 47.9635 48.1352C47.9635 50.0653 46.8069 51.0087 45.5491 51.0087C44.8456 51.0087 44.2433 50.7014 43.9182 50.1677V53.0898H42.9642V47.2941H42.9908H42.9855ZM43.9395 48.7174C43.9395 48.8684 43.9395 48.9978 43.9875 49.1218C44.1633 49.8065 44.739 50.2647 45.4212 50.2647C46.4498 50.2647 47.0308 49.4237 47.0308 48.2053C47.0308 47.1378 46.4765 46.2213 45.4478 46.2213C44.7923 46.2213 44.1687 46.7065 43.9928 47.4182C43.9661 47.5475 43.9182 47.6715 43.9182 47.8225V48.739H43.9448V48.712L43.9395 48.7174Z" fill="#606060"/>
<path d="M49.7656 43.0508H50.7197V50.9059H49.7656V43.0508Z" fill="#606060"/>
<path d="M53.9591 44.0389C53.9591 44.3678 53.7353 44.6481 53.3569 44.6481C53.0318 44.6481 52.7812 44.3947 52.7812 44.0389C52.7812 43.6831 53.0318 43.4297 53.3835 43.4297C53.7353 43.4297 53.9858 43.6831 53.9858 44.0389H53.9591ZM52.8772 50.902V45.5377H53.8312V50.902H52.8772Z" fill="#606060"/>
<path d="M56.1031 50.9006V46.2749H55.3516V45.5363H56.1031V45.2829C56.1031 44.5227 56.2789 43.8326 56.7053 43.4013C57.0571 43.0455 57.5581 42.8945 57.9845 42.8945C58.3096 42.8945 58.6134 42.97 58.8159 43.0455L58.688 43.8057C58.5388 43.7302 58.3629 43.6763 58.0857 43.6763C57.2543 43.6763 57.0571 44.4149 57.0571 45.229V45.5093H58.3362V46.2479H57.0571V50.8737H56.1031V50.9006Z" fill="#606060"/>
<path d="M60.1008 45.5405L61.2573 48.716C61.3852 49.0718 61.5078 49.4762 61.5824 49.8105C61.6837 49.4816 61.785 49.0718 61.9076 48.6945L62.9628 45.5405H63.9702L62.5365 49.3522C61.8596 51.1798 61.3799 52.1233 60.7297 52.7056C60.25 53.1369 59.8023 53.2878 59.5465 53.3418L59.296 52.5277C59.5465 52.4522 59.8503 52.3012 60.1487 52.0425C60.3992 51.8376 60.751 51.4602 60.9535 50.948C61.0015 50.8456 61.0281 50.7701 61.0281 50.7216C61.0281 50.6731 61.0282 50.5922 60.9535 50.4682L58.9922 45.5352H60.0954L60.1008 45.5405Z" fill="#606060"/>
<path d="M66.5294 44.0389C66.5294 44.3678 66.3056 44.6481 65.9272 44.6481C65.6021 44.6481 65.3516 44.3947 65.3516 44.0389C65.3516 43.6831 65.602 43.4297 65.9538 43.4297C66.3056 43.4297 66.5561 43.6831 66.5561 44.0389H66.5294ZM65.4475 50.902V45.5377H66.4015V50.902H65.4475Z" fill="#606060"/>
<path d="M68.5402 46.9859C68.5402 46.4252 68.5402 45.967 68.4922 45.5357H69.345L69.3929 46.4252C69.6434 45.9184 70.2723 45.4062 71.1517 45.4062C71.8819 45.4062 73.0118 45.8376 73.0118 47.6922V50.8946H72.0578V47.7946C72.0578 46.932 71.7327 46.2203 70.8266 46.2203C70.1977 46.2203 69.6967 46.6786 69.5475 47.2124C69.4995 47.3417 69.4729 47.4927 69.4729 47.6706V50.9H68.5188V46.9859H68.5455H68.5402Z" fill="#606060"/>
<path d="M79.7475 45.5391C79.7475 45.9219 79.6995 46.3533 79.6995 47.011V50.111C79.6995 51.3294 79.449 52.095 78.948 52.5532C78.447 53.0385 77.6902 53.1894 77.0133 53.1894C76.3365 53.1894 75.6809 53.0385 75.2545 52.7581L75.505 52.0195C75.8568 52.2459 76.4111 52.4508 77.0613 52.4508C78.042 52.4508 78.7721 51.944 78.7721 50.5692V49.96C78.4683 50.4668 77.9194 50.8496 77.0879 50.8496C75.7821 50.8496 74.8281 49.7336 74.8281 48.2294C74.8281 46.4234 76.0113 45.3828 77.2159 45.3828C78.1432 45.3828 78.6496 45.868 78.8734 46.3209L78.9214 45.5068H79.7741H79.7475V45.5338V45.5391ZM78.7402 47.6472C78.7402 47.4693 78.7402 47.3399 78.6922 47.2159C78.5163 46.6552 78.0366 46.1754 77.3331 46.1754C76.4057 46.1754 75.7502 46.9625 75.7502 48.2079C75.7502 49.2484 76.2778 50.1379 77.3065 50.1379C77.9087 50.1379 78.4364 49.7551 78.6389 49.1459C78.6869 48.968 78.7135 48.7901 78.7135 48.6391V47.6741L78.7402 47.6472Z" fill="#606060"/>
<path d="M90.3515 50.572C89.9251 50.7229 89.0723 50.9763 88.0917 50.9763C86.9884 50.9763 86.0557 50.696 85.3255 49.9844C84.6966 49.3751 84.2969 48.3562 84.2969 47.2132C84.2969 44.9758 85.8318 43.3477 88.2942 43.3477C89.147 43.3477 89.8292 43.5256 90.1276 43.6765L89.9038 44.4636C89.504 44.2857 89.0244 44.1348 88.2729 44.1348C86.4874 44.1348 85.3095 45.2508 85.3095 47.1323C85.3095 49.0139 86.4394 50.1299 88.1503 50.1299C88.7792 50.1299 89.2056 50.0544 89.4294 49.925V47.6876H87.9211V46.9275H90.3568V50.5612L90.3515 50.572Z" fill="#606060"/>
<path d="M92.3125 43.0508H93.2665V50.9059H92.3125V43.0508Z" fill="#606060"/>
<path d="M100.253 48.1817C100.253 50.1657 98.8942 51.0283 97.6151 51.0283C96.1814 51.0283 95.0781 49.9608 95.0781 48.2841C95.0781 46.478 96.2347 45.4375 97.7164 45.4375C99.198 45.4375 100.253 46.5535 100.253 48.1817ZM96.0321 48.2302C96.0321 49.4001 96.709 50.2897 97.6417 50.2897C98.5744 50.2897 99.2513 49.427 99.2513 48.2032C99.2513 47.2867 98.7983 46.1438 97.6684 46.1438C96.5385 46.1438 96.0375 47.2112 96.0375 48.2302H96.0321Z" fill="#606060"/>
<path d="M101.954 50.902C101.954 50.5461 102.002 49.9855 102.002 49.5272V43.0469H102.956V46.4003C103.281 45.791 103.91 45.4082 104.763 45.4082C106.068 45.4082 107.001 46.5243 107.001 48.1524C107.001 50.0609 105.818 51.026 104.613 51.026C103.862 51.026 103.233 50.7187 102.828 50.007H102.801L102.753 50.8966H101.922H101.949L101.954 50.902ZM102.935 48.7401C102.935 48.7401 102.935 48.9935 102.983 49.0959C103.158 49.7806 103.734 50.2389 104.416 50.2389C105.424 50.2389 106.026 49.3978 106.026 48.1794C106.026 47.1119 105.472 46.1954 104.443 46.1954C103.787 46.1954 103.164 46.6537 102.988 47.3923C102.988 47.4947 102.94 47.6457 102.94 47.7966V48.7616V48.7347L102.935 48.7401Z" fill="#606060"/>
<path d="M111.711 50.9014L111.636 50.2168H111.61C111.306 50.6481 110.757 51.0039 110 51.0039C108.918 51.0039 108.391 50.2437 108.391 49.4512C108.391 48.1573 109.521 47.4456 111.583 47.4672V47.3648C111.583 46.9334 111.455 46.1194 110.379 46.1194C109.878 46.1194 109.371 46.2703 108.998 46.5237L108.774 45.8875C109.201 45.6072 109.856 45.4023 110.507 45.4023C112.116 45.4023 112.516 46.5183 112.516 47.5858V49.5914C112.516 50.0496 112.516 50.5079 112.59 50.8853H111.711V50.9014ZM111.562 48.1573C110.507 48.1573 109.323 48.3352 109.323 49.3541C109.323 49.9903 109.75 50.2923 110.229 50.2923C110.906 50.2923 111.359 49.8609 111.509 49.4027C111.535 49.3002 111.557 49.1978 111.557 49.0954V48.1573H111.562Z" fill="#606060"/>
<path d="M114.602 43.0508H115.556V50.9059H114.602V43.0508Z" fill="#606060"/>
<path d="M124.449 47.3962H121.587V50.0918H124.779V50.9059H120.633V43.4336H124.63V44.2477H121.592V46.6091H124.454V47.3962H124.449Z" fill="#606060"/>
<path d="M131.06 43.0528V49.5332C131.06 50.0184 131.06 50.5521 131.108 50.9079H130.255L130.207 49.9699C129.903 50.5791 129.28 51.0104 128.4 51.0104C127.121 51.0104 126.141 49.916 126.141 48.2932C126.141 46.514 127.223 45.4196 128.502 45.4196C129.307 45.4196 129.861 45.8024 130.111 46.2337V43.0312H131.065V43.0582L131.06 43.0528ZM130.079 47.7271C130.079 47.7271 130.079 47.4467 130.031 47.3227C129.882 46.7135 129.354 46.2067 128.651 46.2067C127.644 46.2067 127.068 47.0963 127.068 48.2662C127.068 49.3607 127.596 50.2502 128.624 50.2502C129.28 50.2502 129.855 49.8189 130.031 49.0803C130.058 48.9509 130.079 48.8269 130.079 48.649V47.7109V47.7378V47.7271Z" fill="#606060"/>
<path d="M137.617 49.4262C137.617 49.9869 137.617 50.4667 137.665 50.8765H136.812L136.764 50.0139C136.514 50.4452 135.959 51.0059 135.005 51.0059C134.174 51.0059 133.172 50.5476 133.172 48.666V45.5391H134.126V48.5151C134.126 49.534 134.43 50.2187 135.309 50.2187C135.965 50.2187 136.412 49.7605 136.588 49.3292C136.636 49.1782 136.663 49.0003 136.663 48.8224V45.5445H137.617V49.4316V49.4262Z" fill="#606060"/>
<path d="M143.548 50.7014C143.298 50.8308 142.743 51.0087 142.013 51.0087C140.404 51.0087 139.375 49.9143 139.375 48.2646C139.375 46.6149 140.478 45.418 142.216 45.418C142.791 45.418 143.298 45.5689 143.548 45.6983L143.324 46.4585C143.101 46.3291 142.722 46.2051 142.221 46.2051C141.017 46.2051 140.361 47.1216 140.361 48.2376C140.361 49.483 141.139 50.2432 142.194 50.2432C142.749 50.2432 143.101 50.0922 143.378 49.9898L143.554 50.7284V50.7014H143.548Z" fill="#606060"/>
<path d="M148.149 50.9014L148.074 50.2168H148.047C147.743 50.6481 147.195 51.0039 146.438 51.0039C145.356 51.0039 144.828 50.2437 144.828 49.4512C144.828 48.1573 145.958 47.4456 148.021 47.4672V47.3648C148.021 46.9334 147.893 46.1194 146.816 46.1194C146.315 46.1194 145.809 46.2703 145.436 46.5237L145.212 45.8875C145.638 45.6072 146.294 45.4023 146.944 45.4023C148.554 45.4023 148.953 46.5183 148.953 47.5858V49.5914C148.953 50.0496 148.953 50.5079 149.028 50.8853H148.149V50.9014ZM148.021 48.1573C146.965 48.1573 145.782 48.3352 145.782 49.3541C145.782 49.9903 146.209 50.2923 146.688 50.2923C147.365 50.2923 147.818 49.8609 147.967 49.4027C147.994 49.3002 148.015 49.1978 148.015 49.0954V48.1573H148.021Z" fill="#606060"/>
<path d="M152.165 44.0156V45.5683H153.545V46.3069H152.165V49.2021C152.165 49.8652 152.341 50.2426 152.895 50.2426C153.146 50.2426 153.322 50.2426 153.45 50.1671L153.498 50.9057C153.322 50.9812 153.018 51.0351 152.645 51.0351C152.192 51.0351 151.84 50.8841 151.616 50.6307C151.339 50.3504 151.238 49.8706 151.238 49.2344V46.3123H150.406V45.5737H151.238V44.2798L152.165 44.0264V44.0156Z" fill="#606060"/>
<path d="M156.24 44.0389C156.24 44.3678 156.017 44.6481 155.638 44.6481C155.313 44.6481 155.062 44.3947 155.062 44.0389C155.062 43.6831 155.313 43.4297 155.665 43.4297C156.017 43.4297 156.267 43.6831 156.267 44.0389H156.24ZM155.158 50.902V45.5377H156.112V50.902H155.158Z" fill="#606060"/>
<path d="M163.066 48.1817C163.066 50.1657 161.707 51.0283 160.428 51.0283C158.994 51.0283 157.891 49.9608 157.891 48.2841C157.891 46.478 159.047 45.4375 160.529 45.4375C162.011 45.4375 163.066 46.5535 163.066 48.1817ZM158.845 48.2302C158.845 49.4001 159.522 50.2897 160.454 50.2897C161.387 50.2897 162.064 49.427 162.064 48.2032C162.064 47.2867 161.611 46.1438 160.481 46.1438C159.351 46.1438 158.85 47.2112 158.85 48.2302H158.845Z" fill="#606060"/>
<path d="M164.829 46.9859C164.829 46.4252 164.829 45.967 164.781 45.5357H165.634L165.682 46.4252C165.932 45.9184 166.561 45.4062 167.441 45.4062C168.171 45.4062 169.301 45.8376 169.301 47.6922V50.8946H168.347V47.7946C168.347 46.932 168.022 46.2203 167.116 46.2203C166.487 46.2203 165.986 46.6786 165.837 47.2124C165.789 47.3417 165.762 47.4927 165.762 47.6706V50.9H164.808V46.9859H164.835H164.829Z" fill="#606060"/>
<path d="M152.896 3.60156H151.984V37.2487H152.896V3.60156Z" fill="#606060"/>
<path d="M20.6973 10.3942C15.069 6.62028 7.96978 7.63924 3.55674 12.9928C-0.483217 17.9043 0.172346 24.417 2.69332 28.0076C2.75728 28.11 2.91184 28.0992 2.9758 28.0076L7.26093 21.9639C7.32489 21.8723 7.45281 21.8615 7.53275 21.9531L9.79257 24.4224C9.79257 24.4224 9.85652 24.5787 9.80322 24.6434L5.37419 30.8704C5.32089 30.9512 5.33689 31.0644 5.4115 31.1183L6.7546 32.0996C6.83454 32.1535 6.94648 32.1373 6.99978 32.0618L11.4288 25.8187C11.4288 25.8187 11.5727 25.727 11.6473 25.7648L14.6533 27.1342C14.7546 27.1881 14.7972 27.3013 14.7173 27.393L12.5854 30.3851L10.4161 33.4528C10.3362 33.5552 10.3895 33.7008 10.5068 33.7278C15.3835 35.0702 21.8378 33.0377 24.8598 27.1342C27.8924 21.193 26.059 14.0225 20.6759 10.3942H20.6866H20.6973ZM23.8578 24.6003C22.2695 29.5118 17.8032 32.0025 14.179 32.0834C14.0351 32.0834 13.9444 31.9163 14.0351 31.7977L18.1017 26.0667C18.155 25.9858 18.139 25.8726 18.0643 25.8187L7.59671 18.3625C7.51676 18.3086 7.40482 18.3248 7.35153 18.4003L3.36488 24.0126C3.28493 24.1312 3.10904 24.1043 3.05574 23.9749C2.10172 21.3655 2.4748 16.6912 5.68864 13.4241C9.30222 9.75262 14.9038 9.0248 19.0344 11.6072C23.5274 14.4269 25.4727 19.5971 23.8471 24.5841L23.8578 24.5949V24.6003Z" fill="#2E318B"/>
<path d="M8.50781 17.1907L10.4585 18.614L10.7303 18.4577C10.7303 18.4577 11.7483 18.0803 12.2653 17.8808C13.3472 19.6977 14.8982 20.7813 16.8755 21.2342C16.8649 21.9243 16.8489 22.5766 16.8382 23.2721L18.645 24.5498V23.5848C18.7623 20.1506 18.8635 16.7972 18.9808 13.3359C15.7403 14.5652 12.5904 15.7512 9.39255 16.9643L8.51313 17.1853L8.50781 17.1907ZM17.5151 23.3907C17.659 23.4177 17.7976 23.4446 17.9415 23.4716L17.5151 23.3907ZM17.0514 16.0639C17.0141 17.1745 16.9875 18.2043 16.9501 19.3257C15.6977 18.986 14.7809 18.2959 14.0081 17.2123C15.0527 16.8187 16.0068 16.4575 17.0567 16.0639H17.0514Z" fill="#FF3180"/>
<path d="M29.8017 12.1944H33.0262C33.1541 12.1944 33.2714 12.2591 33.3246 12.3777L38.4625 22.4594C38.4625 22.4594 38.4625 22.4864 38.4732 22.4864C38.5745 22.7344 38.6544 22.9554 38.745 23.1549C38.8356 23.3544 38.8996 23.5862 38.9635 23.8612H39.0009C39.0808 23.5862 39.1554 23.3544 39.2354 23.1441C39.3153 22.95 39.4006 22.729 39.5072 22.4756L44.5278 12.3669C44.5811 12.2483 44.693 12.1836 44.8263 12.1836H48.0135C48.1947 12.1836 48.3492 12.3399 48.3492 12.5232V27.1714C48.3492 27.3547 48.1947 27.5111 48.0135 27.5111H45.8336C45.6524 27.5111 45.4978 27.3547 45.4978 27.1714C45.4978 27.1714 45.6897 16.281 45.7163 16.0492C45.7163 16.0492 45.1247 17.2892 45.0448 17.5533V17.5911L40.296 27.3332C40.2427 27.4518 40.1308 27.5164 39.9975 27.5164H37.8443C37.7164 27.5164 37.5991 27.4518 37.5458 27.3332L32.4239 17.2029C32.3067 16.9657 31.7524 15.6879 31.7524 15.6879C31.7524 15.8173 31.9442 27.193 31.9442 27.193C31.9442 27.3763 31.7897 27.5326 31.6085 27.5326H29.8123C29.6311 27.5326 29.4766 27.3763 29.4766 27.193V12.5448C29.4766 12.3615 29.6311 12.2052 29.8123 12.2052H29.8017V12.1944Z" fill="#2E318B"/>
<path d="M50.3047 21.7896C50.3047 20.1075 50.8963 18.7489 52.1008 17.7138C53.2894 16.684 54.7977 16.1719 56.6204 16.1719C58.4432 16.1719 59.8609 16.6571 60.9429 17.6221C62.0248 18.5872 62.5578 19.935 62.5418 21.6333V22.663H51.8396V20.8084H59.845V21.1373C59.845 20.3286 59.6104 19.6762 59.1734 19.164C58.7364 18.6519 57.8196 18.4093 56.4392 18.4093C55.3946 18.4093 54.5418 18.7112 53.8969 19.3096C53.252 19.9081 52.9269 20.6952 52.9269 21.6494V22.1454C52.9269 23.1914 53.3 24.0108 54.0355 24.6254C54.771 25.24 55.6877 25.542 56.7857 25.542C57.6118 25.542 58.31 25.4126 58.9016 25.1484C59.4932 24.8842 59.9462 24.5715 60.2713 24.1833L62.3872 25.3856C61.9982 26.1835 61.316 26.7981 60.346 27.2025C59.3759 27.6068 58.1661 27.8171 56.7164 27.8171C54.8083 27.8171 53.2574 27.3103 52.0848 26.2914C50.9123 25.2724 50.3313 23.8868 50.3313 22.1401V21.8112H50.3047V21.8004V21.7896Z" fill="#2E318B"/>
<path d="M62.8281 16.4476H71.0093V18.9006H62.8281V16.4476ZM65.008 17.321L65.0613 17.1754L65.008 12.1992H67.7049L67.7582 23.3646C67.7582 24.2111 67.9127 24.7771 68.2378 25.0359C68.5629 25.3109 68.9733 25.4403 69.501 25.4403C69.7568 25.4403 69.9807 25.4133 70.1619 25.3756C70.3431 25.3378 70.5083 25.2731 70.6522 25.2084L70.7055 27.4782C70.5403 27.5429 70.2791 27.5968 69.9433 27.6453C69.6076 27.6992 69.2078 27.7262 68.7441 27.7262C67.6356 27.7262 66.7295 27.4243 66.0313 26.8366C65.3491 26.2382 64.9973 25.2192 64.9973 23.7528V17.3048L65.008 17.3156V17.321Z" fill="#2E318B"/>
<path d="M73.2125 21.6459C74.2572 20.9774 75.5736 20.6539 77.1779 20.6539H80.509V19.6619C80.509 19.1929 80.2905 18.8371 79.8481 18.6052C79.4057 18.3734 78.7235 18.2548 77.8068 18.2548C76.9913 18.2548 76.3358 18.3734 75.8081 18.5944C75.2805 18.8155 75.0193 19.1821 75.0193 19.6781V20.1471H72.3598V19.5487C72.3598 18.5459 72.8874 17.7319 73.9481 17.1226C75.0087 16.508 76.3624 16.1953 78.0147 16.1953C79.6669 16.1953 80.9567 16.4703 81.8894 17.0202C82.8168 17.5701 83.2858 18.4974 83.2858 19.7751V24.8268C83.2858 25.3228 83.3391 25.7811 83.4403 26.2393C83.5416 26.6814 83.6962 27.0642 83.904 27.3499V27.5171H81.1805C81.0633 27.3337 80.9727 27.1019 80.8981 26.8C80.8234 26.4981 80.7701 26.1854 80.7328 25.8619C80.477 26.3202 79.9067 26.7353 79.0273 27.1127C78.1479 27.4901 77.1672 27.6734 76.0853 27.6734C74.7955 27.6734 73.7349 27.3877 72.9087 26.827C72.072 26.2663 71.6562 25.4414 71.6562 24.3739C71.6562 23.2256 72.1732 22.3252 73.2179 21.6567L73.2125 21.6459ZM75.0993 25.3174C75.5257 25.5546 76.1333 25.6678 76.9061 25.6678C77.7322 25.6678 78.5476 25.4738 79.3311 25.0802C80.1199 24.6866 80.5037 24.1799 80.5037 23.5275V22.5732H77.7269C76.6929 22.5732 75.8828 22.7026 75.3125 23.0045C74.7422 23.2903 74.4491 23.7216 74.4491 24.2715C74.4491 24.7406 74.6676 25.0964 75.094 25.3174H75.0993Z" fill="#2E318B"/>
<path d="M91.7231 12.207H95.2621L101.743 27.5237H98.5665L94.0629 16.0079C93.935 15.6575 93.8177 15.3394 93.7164 15.0806C93.6152 14.8218 93.4979 14.5738 93.3913 14.3258H93.338C93.2367 14.5846 93.1301 14.8326 93.0395 15.0968C92.9383 15.3448 92.821 15.6575 92.6665 16.0133L88.1735 27.5291H85.3594L91.7337 12.2124H91.7231V12.207ZM89.1168 21.8413H97.8043L98.5772 24.1541H88.3547L89.1168 21.8413Z" fill="#FF3180"/>
<path d="M102.544 16.4385H104.649C104.766 16.4385 104.857 16.5301 104.857 16.6325V17.7971C105.155 17.355 105.683 16.9614 106.445 16.6487C107.207 16.336 108.044 16.1797 108.95 16.1797C110.512 16.1797 111.764 16.6487 112.692 17.576C113.619 18.5033 114.088 19.7972 114.088 21.4254V21.7381C114.088 23.3986 113.635 24.7033 112.718 25.6684C111.802 26.6334 110.602 27.1025 109.105 27.1025C108.215 27.1025 107.399 26.9569 106.637 26.6873C106.083 26.4932 105.63 26.256 105.31 25.9811C105.182 25.8786 104.974 25.9703 104.974 26.1374V31.7767C104.974 31.8953 104.873 31.987 104.766 31.987H102.544C102.427 31.987 102.336 31.8953 102.336 31.7767V16.6325C102.336 16.5139 102.427 16.4223 102.544 16.4223V16.4331V16.4385ZM106.195 24.3637C106.813 24.7033 107.5 24.8597 108.247 24.8597C109.281 24.8597 110.064 24.6009 110.597 24.0887C111.125 23.5819 111.386 22.7948 111.386 21.7651V21.3877C111.386 20.3579 111.13 19.5978 110.597 19.1395C110.069 18.6812 109.281 18.4494 108.236 18.4494C107.527 18.4494 106.856 18.6058 106.237 18.9346C105.619 19.2635 105.219 19.6032 104.985 20.0183C104.974 20.0453 104.958 20.083 104.958 20.1207V23.1884C104.958 23.1884 104.958 23.2531 104.985 23.2908C105.193 23.6952 105.603 24.0456 106.2 24.3745V24.3637H106.195Z" fill="#FF3180"/>
<path d="M115.825 16.0991H117.957C118.058 16.0991 118.138 16.18 118.138 16.2825V17.8082C118.436 17.3661 118.964 16.9726 119.726 16.6599C120.488 16.3472 121.325 16.1908 122.231 16.1908C123.793 16.1908 125.045 16.6598 125.973 17.5872C126.9 18.5145 127.369 19.8084 127.369 21.4366V21.7493C127.369 23.4098 126.916 24.7145 125.999 25.6795C125.082 26.6445 123.883 27.1136 122.386 27.1136C121.496 27.1136 120.68 26.968 119.918 26.6985C119.348 26.4882 118.9 26.2564 118.548 25.9652C118.431 25.8628 118.25 25.9545 118.25 26.1108V31.804C118.25 31.9065 118.159 31.9873 118.058 31.9873H115.814C115.713 31.9873 115.633 31.9065 115.633 31.804V16.2771C115.633 16.1746 115.723 16.0938 115.825 16.0938V16.0991ZM119.502 24.364C120.12 24.7037 120.808 24.86 121.554 24.86C122.588 24.86 123.372 24.6012 123.905 24.0891C124.432 23.5823 124.693 22.7952 124.693 21.7654V21.388C124.693 20.3583 124.438 19.5981 123.905 19.1399C123.377 18.6816 122.588 18.4497 121.544 18.4497C120.835 18.4497 120.163 18.6061 119.545 18.935C118.953 19.2477 118.527 19.6035 118.292 20.0186C118.282 20.0456 118.266 20.0833 118.266 20.1103V23.1779C118.266 23.1779 118.266 23.2426 118.292 23.2696C118.5 23.6739 118.911 24.0244 119.508 24.3532V24.364H119.502Z" fill="#FF3180"/>
<path d="M129.006 12.0664H131.25C131.394 12.0664 131.522 12.185 131.522 12.3414V27.2537C131.522 27.3993 131.405 27.5287 131.25 27.5287H129.006C128.862 27.5287 128.734 27.41 128.734 27.2537V12.3414C128.734 12.1958 128.852 12.0664 129.006 12.0664Z" fill="#FF3180"/>
<path d="M133.622 29.6148C133.868 29.6957 134.123 29.7442 134.395 29.7711C134.667 29.7981 134.966 29.8089 135.285 29.8089C135.92 29.8197 136.484 29.6418 136.975 29.2482C137.465 28.8546 137.929 28.1106 138.355 27.027L138.211 26.6226L133.164 16.1797H136.069L139.336 22.9673C139.464 23.2045 139.57 23.7383 139.57 23.7383H139.688C139.688 23.7383 139.816 23.2153 139.933 22.9673L143.275 16.1797H145.854L140.263 28.2724C139.682 29.6418 139.037 30.6122 138.313 31.1567C137.604 31.7174 136.698 31.9924 135.6 31.9924C135.147 31.9924 134.763 31.9654 134.465 31.9277C134.166 31.8899 133.884 31.8252 133.628 31.7336V29.604L133.617 29.6148H133.622Z" fill="#FF3180"/>
</g>
<defs>
<clipPath id="clip0_4230_37044">
<rect width="193" height="62" fill="white"/>
</clipPath>
</defs>
</svg>
